<svg width="195" height="149" viewBox="0 0 195 149" fill="none" xmlns="http://www.w3.org/2000/svg">
<g id="Layer_1" clip-path="url(#clip0_1859_2514)">
<path id="Vector" d="M21.0327 147.424C21.3078 146.302 21.0085 145.191 20.8817 144.102C19.9003 135.597 18.7867 127.109 17.851 118.602C17.4493 114.954 16.7914 111.33 16.7159 107.65C17.5356 107.52 18.153 108.073 18.8622 108.305C22.2083 109.389 25.7001 109.648 29.1407 110.195C31.3193 110.543 33.5115 110.473 35.6955 110.634C40.913 111.023 46.1466 111.139 51.3802 110.92C54.5269 111.333 57.5818 110.284 60.7042 110.335C61.9526 110.168 63.1902 109.893 64.4548 109.861C65.6062 110.173 66.62 109.459 67.7228 109.418C69.5995 109.036 71.468 108.631 73.129 107.604C73.3905 107.442 73.644 107.234 73.9891 107.364C73.4337 112.295 72.8809 117.227 72.3174 122.156C71.7323 127.266 71.1391 132.375 70.5378 137.485C70.2088 140.284 69.8502 143.077 69.5132 145.873C69.4458 146.423 69.1627 147.035 69.8664 147.415C69.7073 147.65 69.4673 147.726 69.2031 147.75C66.2075 147.976 63.2064 147.825 60.2054 147.847C59.0459 147.855 58.4554 147.34 58.5983 146.181C59.0055 142.886 58.539 139.561 59.0378 136.28C59.0648 136.102 59.0783 135.924 59.0783 135.743C59.081 131.181 59.5529 126.629 59.3425 122.064C59.2482 121.741 59.3641 121.331 58.6684 120.986C58.4015 126.446 58.1346 131.777 57.8515 137.11C57.6789 139.876 57.4066 142.638 57.4173 145.412C57.4254 147.588 57.118 147.871 54.9124 147.877C52.5801 147.882 50.2504 147.882 47.9181 147.877C47.3384 147.877 46.7425 147.925 46.2463 147.521C45.7502 146.898 45.8985 146.156 45.8985 145.455C45.8877 137.908 45.8985 130.358 45.8823 122.811C45.8823 122.213 46.0846 121.544 45.5156 121.061C45.0357 120.9 44.8496 121.156 44.7984 121.576C44.7445 122.021 44.7687 122.469 44.7687 122.916C44.7687 130.388 44.7714 137.86 44.7633 145.331C44.7633 146.035 44.8847 146.774 44.4101 147.407C44.2942 147.539 44.1567 147.639 43.9976 147.709C40.6757 147.963 37.3511 147.909 34.0265 147.744C33.7757 147.669 33.5573 147.539 33.3712 147.356C32.921 146.836 32.9587 146.194 32.9371 145.568C32.6999 138.402 32.2657 131.243 32.0905 124.073C32.0689 123.164 31.9799 122.237 31.5539 121.369C31.2627 123.178 31.2277 125.001 31.411 126.799C31.7508 130.108 31.5647 133.429 31.837 136.741C32.0123 138.876 32.3224 141.025 32.1363 143.185C32.0878 143.94 32.1147 144.698 32.1067 145.453C32.0851 147.475 31.8235 147.747 29.8148 147.855C27.4204 147.852 25.026 147.866 22.629 147.847C22.0681 147.841 21.4561 147.963 21.0273 147.424L21.0327 147.424Z" fill="#70A1E5"/>
<path id="Vector_2" d="M176.151 64.3812C178.047 64.7371 179.956 64.3758 181.857 64.4999C182.345 64.5322 182.833 64.5484 183.321 64.5727C183.906 64.9286 184.639 64.7291 185.227 65.0715C189.444 66.5356 192.278 69.5043 193.664 73.6216C194.425 75.8785 194.977 78.3699 193.896 80.8128C193.707 81.2388 193.75 81.7646 193.686 82.2446C192.276 86.1031 191.165 90.0559 189.876 93.9522C189.698 94.4914 189.655 95.1116 189.064 95.4271C188.309 95.667 187.74 95.3866 187.336 94.7584C186.958 94.1679 187.198 93.6421 187.595 93.1621C188.145 92.4988 188.072 91.8166 187.843 91.0212C187.454 89.6649 187.392 88.2521 186.395 87.0657C185.416 85.9008 184.324 85.1944 182.814 85.3777C180.724 85.6312 178.813 86.2055 177.713 88.2979C177.02 89.6164 176.72 89.638 175.359 89.007C174.631 88.67 173.994 88.1334 173.158 88.0471C170.777 87.2301 168.628 85.9224 166.388 84.8061C165.385 84.3046 165.671 83.528 166.053 82.7434C167.698 79.3622 169.494 76.0618 171.228 72.7264C171.6 72.0119 171.948 71.2866 172.293 70.5613C170.149 74.6004 168.103 78.6908 165.897 82.6976C165.525 83.3717 165.185 84.0565 165.808 84.8007C166.056 85.0973 166.005 85.4748 165.835 85.8199C164.18 89.1445 162.54 92.4772 160.79 95.7533C160.704 95.9124 160.556 96.0229 160.397 96.1092C159.385 97.2579 158.272 97.3603 157.056 96.4382C156.765 96.2171 156.422 96.1443 156.069 96.0958C155.597 95.996 155.176 95.8045 154.864 95.4217C154.273 94.5858 153.381 94.1463 152.523 93.6717C150.603 92.6094 148.732 91.4688 146.791 90.4442C145.998 90.0263 145.17 89.5679 146.1 88.4435C146.34 88.1523 146.359 87.6022 146.462 87.1708C146.61 86.5426 146.327 86.0599 145.707 85.9682C144.693 85.8226 143.614 85.6447 142.908 86.707C142.45 87.3946 141.8 87.5591 141.034 87.4728C139.982 87.2922 139.203 86.5749 138.305 86.0896C137.34 85.5665 137.038 84.8546 137.434 83.7572C138.373 81.1553 139.295 78.5479 140.198 75.9324C140.381 75.4012 140.568 74.8674 140.737 74.2634C139.85 76.6604 139.136 79.0548 137.987 81.282C137.615 81.9345 137.202 82.56 137.057 83.3231C136.876 84.2561 136.342 84.2264 135.719 83.7276C135.296 83.3905 134.867 82.978 134.921 82.4091C135.008 81.5112 134.485 81.1687 133.778 81.0824C132.597 80.9422 132.155 79.7235 131.128 79.3891C129.982 78.8175 129.232 77.7956 128.361 76.9166C126.894 75.4363 125.309 74.0692 124.007 72.4298C123.966 72.3031 123.955 72.1737 123.971 72.0416C124.298 71.2542 124.659 70.4858 125.341 69.9276C126.762 68.779 128.167 67.6115 129.653 66.5464C130.448 65.9775 131.187 65.3465 131.869 64.6266C133.533 62.8632 135.736 62.2835 138.06 62.243C138.885 62.2295 139.753 62.0219 140.578 62.3401C144.353 63.1274 148.152 63.5373 152.016 63.3917C154.346 63.3054 154.378 63.4024 155.074 65.6512C155.778 67.9242 157.444 69.1592 159.817 69.2967C162.165 69.4342 164.347 68.876 166.401 67.8164C167.555 67.2232 168.618 66.4601 169.297 65.2953C169.774 64.4756 170.492 64.1089 171.427 64.1871C172.999 64.3192 174.593 63.8878 176.149 64.392L176.151 64.3812Z" fill="#F96915"/>
<path id="Vector_3" d="M129.607 64.5186C127.814 59.889 127.177 55.3187 130.389 50.9856C131.419 49.597 132.869 48.6533 134.209 47.6152C135.239 46.8171 135.517 45.8518 135.299 44.6573C135.169 43.9508 135.008 43.2525 134.851 42.5514C134.166 39.4722 135.304 36.8432 138.027 35.2281C138.375 35.0232 138.71 34.7643 139.087 34.6484C141.508 33.888 142.622 32.1354 143.062 29.741C143.196 29.0076 143.102 28.6059 142.512 28.1529C141.177 27.1337 140.416 25.7208 140.096 24.0841C139.629 21.6978 140.81 19.3142 143.021 18.2842C145.895 16.9441 148.985 16.386 152.094 15.9168C158.496 14.9488 164.608 15.8225 170.376 18.81C174.814 21.11 177.853 24.4562 178.891 29.5631C180.606 37.9865 181.401 46.507 181.884 55.0625C182.056 58.1067 180.8 60.7545 178.548 62.8577C177.998 63.37 177.443 63.9227 176.618 63.9901C174.827 64.4674 173.007 64.3164 171.206 64.1573C170.564 64.1007 169.995 64.1142 169.41 64.3272C168.793 63.7933 168.847 63.0114 168.793 62.3346C168.418 57.5998 167.868 52.8865 167.415 48.1598C167.304 46.9977 167.857 45.9758 168.154 44.9053C168.521 43.5706 168.545 43.576 167.202 43.3307C167.113 43.3145 167.024 43.3091 166.935 43.2902C166.566 43.2039 166.234 43.0529 166.221 42.6134C166.207 42.1739 166.517 41.9933 166.892 41.9016C167.288 41.8072 167.693 41.8207 168.097 41.8126C171.427 41.7533 172.263 40.9929 172.565 37.6548C172.684 36.3471 172.527 35.0529 171.993 33.8395C171.36 32.3969 170.697 32.2136 169.37 33.0225C168.237 33.7128 167.372 34.6727 166.579 35.7135C166.28 36.1044 165.997 36.5197 165.555 36.765C165.156 36.9861 164.678 37.0562 164.63 36.4792C164.557 35.5894 163.953 35.5679 163.327 35.4492C162.136 35.2227 160.965 34.8938 159.881 34.3356C158.603 33.6777 157.568 32.7798 157.239 31.2968C157.118 30.7495 156.899 30.5365 156.306 30.7603C152.558 32.1785 148.883 31.5179 145.278 30.2237C144.221 29.8462 143.927 30.2237 143.684 31.1C142.285 36.1691 142.072 41.276 143.32 46.391C144.698 52.0372 150.034 55.4589 155.786 54.5691C158.45 54.1565 160.884 53.2263 163.139 51.7622C163.632 51.4413 164.282 50.778 164.765 51.4656C165.301 52.2286 164.449 52.6169 163.915 52.9917C161.715 54.5367 159.277 55.5452 156.632 55.9685C155.5 56.1491 155.16 56.683 155.141 57.7616C155.114 59.3389 155.538 60.8785 155.43 62.4532C155.392 63.0221 155.53 63.6369 155.017 64.0872C153.874 63.1893 152.553 63.5533 151.294 63.5965C148.465 63.6962 145.677 63.459 142.935 62.7498C142.145 62.5449 141.32 62.7498 140.535 62.5152C139.295 62.3292 138.095 62.1404 136.787 62.3777C134.552 62.7849 132.481 63.5992 130.391 64.4108C130.143 64.5078 129.882 64.5887 129.604 64.5159L129.607 64.5186Z" fill="black"/>
<path id="Vector_4" d="M125.444 70.1132C124.974 70.763 124.505 71.4128 124.033 72.0653C123.64 72.4267 123.189 72.1435 122.766 72.1678C121.208 72.2541 120.242 73.7587 120.806 75.2497C121.024 75.789 121.405 76.2824 121.297 76.9188C121.218 77.1911 121.084 77.4257 120.849 77.5929C120.525 77.7627 120.188 77.7627 119.846 77.6792C117.905 76.7597 115.934 75.8942 114.087 74.7779C113.739 74.5676 113.38 74.3869 112.995 74.2602C111.533 73.7775 110.7 74.1739 110.201 75.6542C109.953 76.3876 109.767 77.0509 108.734 76.6653C106.949 75.9966 106.866 75.9157 107.319 74.6053C107.772 73.2922 108.365 72.033 108.829 70.7199C107.664 74.1011 105.803 77.1803 104.606 80.5508C103.811 82.7887 102.848 84.9647 101.883 87.1353C101.279 88.4942 100.866 88.6317 99.6449 87.7554C95.7109 84.9323 91.8309 82.0392 87.9454 79.1514C80.97 73.969 73.8759 68.943 67.0136 63.6096C66.5526 63.251 66.1158 62.8708 65.6736 62.4933C63.0123 60.8593 60.5073 59.015 58.1993 56.9037C59.5286 55.3048 60.3051 53.3769 61.327 51.5973C63.6729 47.515 65.9189 43.3761 68.2 39.2561C68.44 38.822 68.6827 38.3987 69.1438 38.156C69.7046 37.9268 70.0821 38.2935 70.4785 38.5739C78.1199 43.9963 85.7452 49.4375 93.419 54.8114C98.7066 58.5162 103.938 62.2991 109.225 66.0066C109.756 66.3787 110.304 66.6133 110.975 66.5513C113.162 66.3491 115.327 66.0012 117.481 65.6049C120.563 65.0386 123.667 64.6072 126.759 64.1192C127.358 64.0248 127.927 64.0302 128.356 64.556C128.159 65.6345 127.609 66.5378 126.951 67.3872C126.733 67.6676 126.466 67.9372 126.662 68.3444C126.703 69.2423 125.64 69.3771 125.441 70.1078L125.444 70.1132Z" fill="#70A1E5"/>
<path id="Vector_5" d="M120.296 147.15C121.874 139.854 123.454 132.561 125.026 125.264C125.128 124.784 125.193 124.296 125.274 123.814C125.676 122.975 126.466 123.069 127.15 123.134C131.613 123.56 136.086 123.862 140.546 124.299C145.141 124.749 149.743 125.092 154.338 125.531C159.782 126.052 165.234 126.48 170.678 126.99C172.328 127.144 173.983 127.249 175.634 127.424C176.426 127.508 177.262 127.486 177.899 128.103C177.575 131.652 177.259 135.198 176.925 138.746C176.674 141.41 176.402 144.074 176.13 146.738C176.1 147.024 176.13 147.269 176.335 147.477C177.774 147.784 179.233 147.523 180.681 147.617C181.202 147.652 181.741 147.482 182.242 147.749C182.248 147.838 182.256 147.924 182.261 148.013C181.841 148.253 181.382 148.14 180.943 148.14C160.747 148.145 140.554 148.148 120.361 148.143C119.528 147.868 120.334 147.482 120.294 147.153L120.296 147.15Z" fill="black"/>
<path id="Vector_6" d="M128.358 64.5614C127.56 64.1758 126.776 64.4994 125.994 64.618C121.175 65.346 116.357 66.066 111.549 66.8479C110.589 67.0043 109.834 66.8479 109.044 66.2871C102.627 61.7275 96.1802 57.2084 89.7574 52.657C83.1918 48.0058 76.6451 43.3276 70.0848 38.6683C69.7963 38.4634 69.4593 38.3259 69.1438 38.1587C69.6265 37.3902 70.5243 37.4145 71.2335 37.1287C75.5881 35.3653 79.9751 33.6882 84.3378 31.9463C85.0038 31.6821 85.4487 31.7656 86.0284 32.1998C99.92 42.6212 113.833 53.0183 127.746 63.4128C128.151 63.7148 128.593 63.9412 128.356 64.5614L128.358 64.5614Z" fill="black"/>
<path id="Vector_7" d="M177.901 128.104C171.43 127.517 164.956 126.926 158.482 126.344C147.945 125.397 137.407 124.454 126.867 123.523C126.328 123.475 125.705 123.192 125.274 123.817C125.274 123.084 124.427 123.313 124.19 122.852C123.855 122.048 124.327 121.372 124.578 120.684C126.161 116.338 127.617 111.948 129.13 107.577C129.256 106.865 129.542 106.21 129.847 105.563C130.413 104.36 130.898 104.161 132.028 104.924C133.549 105.951 135.113 106.916 136.634 107.944C142.646 112.002 148.667 116.044 154.704 120.069C157.66 122.04 160.938 122.563 164.419 122.423C165.867 122.364 167.243 121.962 168.664 121.822C169.583 121.895 170.408 121.684 171.088 121.024C171.193 120.946 171.309 120.889 171.43 120.846C172.622 120.703 173.83 120.706 174.96 120.15C175.814 119.732 176.521 119.349 176.459 118.206C176.429 117.651 176.855 117.119 176.831 116.521C176.879 116.157 177.028 115.836 177.246 115.55C178.64 113.725 179.535 111.64 180.433 109.553C180.633 109.09 180.722 108.486 181.412 108.429C181.474 111.872 180.945 115.256 180.527 118.662C180.306 120.474 179.832 122.259 179.835 124.092C179.835 125.144 179.479 126.112 179.303 127.12C179.163 127.921 178.521 128.002 177.896 128.107L177.901 128.104Z" fill="#F96915"/>
<path id="Vector_8" d="M35.442 34.3897C34.3204 34.3897 33.1933 34.3088 32.0797 34.4086C30.1707 34.5785 28.7848 32.3944 29.8282 30.5933C32.3413 26.2548 34.9378 21.9649 37.3942 17.5968C38.9689 14.7953 40.6595 12.0639 42.245 9.2705C43.5931 6.89501 45.7853 6.71166 47.3249 8.76359C49.6545 11.8671 51.9869 14.9706 54.3084 18.0795C56.7945 21.4068 59.2401 24.7638 61.7585 28.0641C63.3089 30.0971 63.1552 31.963 61.2543 32.9607C60.7959 33.2006 60.3294 33.2627 59.8306 33.2654C53.788 33.295 47.7698 33.9583 41.7192 33.9718C39.6457 33.9772 37.5452 34.3897 35.4394 34.3924L35.442 34.3897Z" fill="#F96915"/>
<path id="Vector_9" d="M28.0217 62.2431C30.9958 60.5066 33.9402 58.7189 36.9493 57.0472C40.4006 55.1274 43.9328 53.3559 47.7778 52.3501C49.0505 52.0185 50.4499 51.5655 51.364 53.1186C51.302 54.4533 50.5362 55.4752 49.7705 56.4486C46.9582 60.0267 43.5608 63.0304 40.0177 65.84C35.8087 69.1754 31.4946 72.3867 26.989 75.3258C20.755 79.3892 14.4833 83.3825 7.57521 86.2379C5.55564 87.0711 3.51719 87.9609 1.23338 87.6993C0.351672 86.9902 0.348978 86.1355 0.796572 85.1917C1.75378 83.1722 3.31497 81.6164 4.85728 80.074C8.59173 76.3423 12.7172 73.0662 16.9639 69.9412C17.425 69.6014 17.7917 69.2832 17.7944 68.6793C18.1962 68.5579 18.1989 68.9084 18.3013 69.1215C18.97 70.5451 19.547 70.9334 21.0327 70.591C24.0472 69.8953 26.5872 68.3665 28.5528 65.9478C29.2566 65.0823 29.3887 64.1925 28.5717 63.2865C28.3102 62.9953 28.0082 62.696 28.0244 62.2458L28.0217 62.2431Z" fill="#70A1E5"/>
<path id="Vector_10" d="M60.7959 110.44C60.7096 110.537 60.6233 110.715 60.5317 110.718C57.4632 110.782 54.4433 111.713 51.3452 111.224C50.0401 110.391 49.4416 109 48.6839 107.76C47.7132 106.172 46.6994 104.591 46.2464 102.747C45.9633 100.943 44.9791 99.3929 44.3805 97.7023C43.4422 95.0571 44.0354 93.6604 46.3192 91.9456C49.5926 89.4865 53.1167 87.4453 56.5815 85.299C57.3581 84.8191 57.7409 84.8083 58.1723 85.9219C59.8899 90.3547 61.5293 94.8468 64.7326 98.5274C66.7387 100.833 68.9038 102.979 71.0313 105.166C71.247 105.446 71.069 105.686 70.9018 105.875C69.8233 107.104 69.1627 108.666 67.8711 109.725C67.2051 109.89 66.5472 110.105 65.8704 110.203C65.4417 110.265 64.9051 110.464 64.6032 109.887C64.5088 109.499 64.6921 109.189 64.9078 108.908C65.5658 108.059 65.0265 107.522 64.4225 107.01C63.7241 106.417 63.3251 106.935 62.8964 107.423C62.0794 108.35 61.141 109.189 60.7932 110.443L60.7959 110.44Z" fill="#F96915"/>
<path id="Vector_11" d="M1.23073 87.696C11.822 85.4149 20.4288 79.2213 29.1839 73.381C35.6955 69.0372 41.9565 64.3321 47.4166 58.6589C49.0101 57.0034 50.3907 55.2049 51.3641 53.1152C52.3428 54.334 53.3 55.5716 54.3085 56.7688C54.9206 57.4941 54.9152 58.1628 54.4595 58.9744C52.9873 61.6034 50.8922 63.7119 48.6812 65.6641C37.3268 75.6783 25.0234 84.2851 11.1722 90.5379C9.58136 91.2552 7.93118 91.8322 6.17316 92.0668C5.16202 92.2016 4.4475 91.905 3.8543 91.0988C3.00225 89.9447 2.10706 88.8257 1.22805 87.6933L1.23073 87.696Z" fill="black"/>
<path id="Vector_12" d="M46.2463 102.748C47.8641 105.622 49.3848 108.556 51.3451 111.225C47.643 111.546 43.9274 111.441 40.2307 111.273C35.8114 111.074 31.3786 110.971 26.9889 110.338C23.7641 109.871 20.5042 109.559 17.4977 108.146C17.22 108.016 16.9747 107.814 16.7158 107.647C16.2979 106.595 17.007 106.167 17.7701 105.821C19.8301 104.889 22.033 104.46 24.2521 104.125C31.5431 103.025 38.8825 102.683 46.2463 102.75L46.2463 102.748Z" fill="black"/>
<path id="Vector_13" d="M97.2587 118.832C98.0622 118.645 98.801 119.425 99.3079 120.223C100.079 121.439 100.947 122.604 101.484 123.973C101.931 125.114 101.802 126.136 100.942 126.915C99.6773 128.058 98.2321 128.997 96.679 129.695C95.2418 130.34 94.1282 130.04 93.1549 128.743C92.2084 127.484 91.2971 126.163 90.6068 124.753C90.0082 123.531 90.658 122.364 91.5829 121.536C92.7909 120.457 94.2145 119.657 95.684 118.972C96.0238 118.813 96.4768 118.891 97.256 118.829L97.2587 118.832Z" fill="#F96915"/>
<path id="Vector_14" d="M124.155 72.3675C126.428 74.619 128.698 76.8731 130.971 79.1246C132.57 80.1735 133.765 81.6591 135.062 83.0208C136.469 84.4984 136.369 84.5416 137.167 82.7512C137.399 82.2281 137.461 81.6349 137.828 81.1711C138.718 78.7309 139.605 76.288 140.503 73.8505C140.611 73.5539 140.813 73.1818 141.155 73.3463C141.5 73.5135 141.274 73.8748 141.169 74.1741C139.991 77.5391 138.853 80.9203 137.631 84.2692C137.372 84.9838 137.504 85.2857 138.138 85.6201C139.079 86.1162 139.928 86.7822 140.937 87.1597C142.315 87.4914 143.498 88.241 144.653 88.9986C148.05 91.2312 151.795 92.8814 155.085 95.2919C155.333 95.5562 155.619 95.7503 155.993 95.78C156.56 95.931 157.031 96.268 157.533 96.5484C158.59 97.1416 159.476 96.9816 160.192 96.0685C162.004 92.5794 163.81 89.0876 165.63 85.6039C165.765 85.3451 165.919 85.0566 165.614 84.911C164.519 84.3852 165.042 83.6679 165.379 83.0181C167.572 78.8118 169.785 74.6136 171.996 70.4154C172.174 70.0756 172.282 69.6415 172.867 69.6064C173.107 70.1322 172.727 70.5124 172.527 70.9007C170.416 74.9965 168.313 79.0976 166.148 83.1664C165.746 83.9187 165.824 84.1991 166.604 84.5389C168.777 85.4826 170.745 86.8415 172.959 87.7125C174.622 88.3677 176.216 89.1901 177.793 90.0125C181.172 91.7732 184.594 93.4584 187.889 95.3782C188.298 95.6182 188.749 95.5912 189.177 95.7045C189.504 95.9849 189.407 96.3165 189.293 96.6482C188.573 97.7025 188.145 96.5376 187.735 96.3327C186.71 95.8258 186.174 95.9283 185.998 97.1066C185.678 97.2036 185.489 97.0446 185.351 96.7776C185.405 96.0199 185.254 95.4672 184.451 95.06C179.004 92.3178 173.671 89.3545 168.238 86.58C166.779 85.8331 166.717 85.8601 166.005 87.2945C164.371 90.5895 162.688 93.8629 160.955 97.1066C160.828 97.3438 160.701 97.5811 160.558 97.8103C159.76 99.0668 159.334 99.1989 158.04 98.4008C155.292 96.7021 152.475 95.1247 149.681 93.5042C145.801 91.2555 141.972 88.9069 137.995 86.8388C135.331 85.4529 133.293 83.3956 131.354 81.2358C129.192 78.828 126.851 76.6089 124.616 74.2792C124.187 73.8343 123.645 73.4514 123.626 72.7369C123.731 72.5131 123.694 72.0871 124.149 72.3702L124.155 72.3675Z" fill="#180E13"/>
<path id="Vector_15" d="M28.0217 62.2423C29.9846 63.9895 30.0359 64.8281 28.2751 66.7775C26.4254 68.8268 24.0769 70.0914 21.4857 70.8868C19.3718 71.5366 18.4011 70.8976 17.7917 68.6758C17.4547 66.0145 18.215 63.8008 20.4827 62.2369C22.9876 60.5112 25.5087 60.6191 28.0217 62.2423Z" fill="black"/>
<path id="Vector_16" d="M64.603 75.3198C64.0611 76.9943 63.5676 78.6741 62.4972 80.1409C61.8609 81.0145 61.4213 81.4972 60.2781 80.7881C59.089 80.0493 57.7246 79.5936 56.4304 79.0273C55.2818 78.5231 55.1389 77.9137 55.8291 76.881C57.3013 74.6862 58.3421 72.3539 58.1696 69.6036C58.0455 67.6514 58.5875 67.2092 60.4695 67.9157C61.5076 68.3039 62.597 68.3956 63.6378 68.7677C64.7729 69.1722 65.2502 69.7141 65.1774 70.8601C65.1288 71.6177 65.1261 72.3808 65.1019 73.1412C64.6893 73.8126 65.0749 74.6646 64.603 75.3225L64.603 75.3198Z" fill="#F96915"/>
<path id="Vector_17" d="M65.6574 62.4014C67.313 63.1294 68.5587 64.4398 69.9878 65.486C73.6602 68.1689 77.2976 70.9057 80.9592 73.6074C86.1335 77.4255 91.3132 81.2327 96.4929 85.0427C97.7171 85.9432 98.9844 86.7845 100.16 87.7417C100.837 88.2945 101.147 88.0734 101.414 87.4181C102.668 84.3551 103.894 81.2785 105.175 78.2263C106.297 75.5515 107.694 72.9953 108.627 70.2397C108.705 70.0105 108.813 69.6654 109.179 69.8298C109.576 70.0078 109.446 70.3233 109.319 70.6306C108.613 72.3159 107.915 74.0011 107.216 75.6836C107.378 75.7618 107.459 75.7969 107.534 75.84C108.842 76.5788 109.716 76.6462 110.231 74.8154C110.592 73.5292 111.913 73.4025 113.051 73.9525C115.343 75.0581 117.587 76.2606 119.851 77.4228C119.655 77.7598 119.318 77.8299 118.972 77.8838C117.7 77.6951 116.689 76.8997 115.551 76.3954C114.612 75.9802 113.733 75.4275 112.771 75.0608C112.143 74.8208 111.493 74.7965 111.145 75.5083C110.832 76.1501 111.061 76.7298 111.587 77.1882C111.962 77.5144 112.415 77.7167 112.852 77.9378C114.246 78.6469 115.669 79.3021 117.026 80.0841C117.506 80.3618 118.058 80.7069 117.737 81.3217C117.382 82.0066 116.788 81.5617 116.333 81.3513C113.653 80.1164 111.11 78.6092 108.43 77.3715C107.834 77.0965 107.208 76.9131 106.728 77.5414C106.256 78.1562 106.332 78.7898 106.844 79.3695C106.933 79.4693 107.022 79.5691 107.106 79.6742C107.219 79.8171 107.292 79.9789 107.332 80.1542C107.357 80.3564 107.319 80.5451 107.203 80.715C105.48 80.262 104.962 81.4511 104.496 82.7049C103.881 84.3578 102.943 85.8947 102.541 87.7956C103.687 87.6851 104.587 87.2698 105.534 87.0757C106.127 86.9544 106.75 86.6524 107.289 87.2321C107.534 87.7687 107.534 88.3079 107.332 88.8553C107.289 88.9362 107.181 89.0548 107.16 89.036C105.949 88.0221 104.693 88.672 103.582 89.1088C101.713 89.8422 100.338 89.3541 98.7956 88.1758C91.2027 82.376 83.4345 76.8134 75.7795 71.0971C72.7273 68.8187 69.5348 66.7236 66.6632 64.2052C66.3477 63.9329 66.2776 63.4718 65.9055 63.2426C65.6925 63.1617 65.5765 63.0161 65.6089 62.7789C65.5415 62.644 65.5576 62.5173 65.6547 62.4014L65.6574 62.4014Z" fill="#1B135C"/>
<path id="Vector_18" d="M114.141 31.6768C113.539 30.9677 112.93 30.2666 112.339 29.5521C111.115 28.0772 110.66 26.2949 112.725 24.7499C113.747 23.9868 114.718 22.9838 116.19 23.0215C117.201 23.0485 117.95 23.4664 118.479 24.3131C118.991 25.1355 119.563 25.9282 120.011 26.783C120.703 28.1096 120.304 29.2744 118.994 30.0698C118.099 30.6118 117.206 31.1618 116.314 31.7092C115.586 32.0489 114.86 32.0921 114.146 31.6768L114.141 31.6768Z" fill="#F96915"/>
<path id="Vector_19" d="M181.415 108.426C180.678 109.203 180.527 110.263 180.126 111.193C179.325 113.048 178.249 114.731 177.119 116.389C175.768 118.735 173.695 120.169 171.203 121.078L171.212 121.07C170.492 121.752 169.543 121.887 168.645 122.148C165.698 122.801 162.761 123.049 159.739 122.51C156.276 121.889 153.658 119.759 150.876 117.918C144.679 113.819 138.543 109.634 132.333 105.555C130.354 104.255 130.834 104.08 129.828 106.504C129.68 106.86 129.574 107.232 129.448 107.599C128.798 107.375 129.1 106.935 129.21 106.542C129.343 105.722 129.599 104.945 129.987 104.212C129.922 103.489 130.48 103.638 130.882 103.568C131.626 103.675 132.171 104.169 132.764 104.563C140.206 109.492 147.573 114.531 155.05 119.406C159.798 122.501 164.856 122.577 169.952 120.374C174.372 118.465 177.346 115.092 179.12 110.648C179.934 108.607 180.929 106.641 181.714 104.587C181.873 104.166 182.054 103.751 182.466 103.5C182.736 103.454 183.043 103.338 183.049 103.802C182.385 105.304 181.814 106.838 181.415 108.432L181.415 108.426Z" fill="#130B15"/>
<path id="Vector_20" d="M14.4887 44.2177C14.6154 45.965 13.3346 46.1241 12.6498 46.7928C12.4934 46.9465 12.3208 47.0921 12.1321 47.1999C9.3764 48.7854 9.18496 48.7287 7.32987 45.8895C7.13843 45.5956 6.83104 45.3772 6.65578 45.0779C6.03831 44.0236 5.92236 42.9909 6.89574 42.0499C7.85834 41.1169 9.03934 40.5076 10.1799 39.847C10.5682 39.6205 11.1263 39.5962 11.4768 39.855C13.0866 41.0495 14.0114 42.7078 14.4887 44.2177Z" fill="#F96915"/>
<path id="Vector_21" d="M46.3541 147.407C49.4792 147.418 52.607 147.402 55.7321 147.458C56.7351 147.477 57.0398 147.094 57.056 146.124C57.1018 143.406 57.2366 140.688 57.3391 137.97C57.3526 137.619 57.2798 137.247 57.5764 136.961C58.1156 137.509 57.997 138.215 57.9943 138.87C57.9754 141.629 58.1372 144.392 57.9053 147.162C58.3556 146.657 58.2343 146.04 58.2451 145.463C58.3853 138.026 58.8895 130.606 59.0836 123.172C59.0971 122.681 58.9973 122.048 59.7362 121.889C59.8656 126.936 59.5851 131.973 59.2993 137.007C59.2077 138.611 59.1753 140.227 59.2157 141.834C59.2508 143.228 59.0216 144.592 58.9138 145.967C58.8275 147.07 59.1942 147.496 60.3374 147.453C63.2387 147.34 66.1454 147.585 69.0467 147.353C69.1626 147.345 69.2893 147.453 69.4107 147.509C69.5913 147.749 69.6075 147.96 69.3109 148.122C66.3934 148.202 63.476 148.065 60.5612 148.192C56.2201 148.235 51.879 148.305 47.5351 148.313C37.7231 148.332 27.9138 148.318 18.1017 148.318C17.8779 148.318 17.6541 148.326 17.4303 148.318C17.0717 148.308 16.6214 148.343 16.6053 147.857C16.5864 147.302 17.0798 147.439 17.4088 147.437C18.6167 147.42 19.8274 147.426 21.0381 147.42C23.9771 147.439 26.9134 147.461 29.8525 147.482C29.8794 147.69 29.785 147.846 29.5828 147.849C27.2936 147.895 25.0071 147.86 23.4783 147.873C25.6057 147.814 28.4935 148.041 31.3732 147.674C32.1497 147.674 32.9074 147.571 33.6139 147.216C33.7136 147.269 33.8134 147.323 33.9159 147.377C34.7005 147.952 35.6226 147.633 36.4531 147.658C39.0093 147.739 41.5816 148.016 44.1216 147.447L44.1054 147.456C44.2591 147.342 44.4289 147.307 44.615 147.34C45.068 147.561 45.5183 147.822 46.0333 147.493C46.1357 147.442 46.2463 147.415 46.3595 147.404L46.3541 147.407Z" fill="black"/>
<path id="Vector_22" d="M65.9081 63.2403C66.4285 63.2026 66.6335 63.5234 66.7386 63.9629C66.3261 65.3435 66.9516 66.2845 67.8819 67.2795C73.6332 73.4218 79.4681 79.4832 85.4837 85.3666C90.9546 90.7189 96.6574 95.8312 101.988 101.329C102.827 102.195 103.964 102.726 104.679 103.734C104.781 104.117 104.986 104.567 104.245 104.379C101.94 102.974 100.2 100.925 98.2833 99.0884C88.846 90.0475 79.3414 81.074 70.438 71.4939C69.2193 70.1834 68.0113 68.8568 66.7359 67.603C65.6385 66.5218 65.1046 65.3866 65.8731 63.8955C65.9648 63.7176 65.9028 63.4614 65.9135 63.2403L65.9081 63.2403Z" fill="#191339"/>
<path id="Vector_23" d="M131.025 103.861C130.65 103.885 130.216 103.742 129.987 104.206C128.704 102.807 126.964 102.03 125.463 100.93C125.007 100.596 124.775 100.957 124.457 101.211C122.656 102.664 120.935 104.231 118.838 105.282C118.199 105.603 117.568 105.921 116.85 106.024C116.521 106.166 116.201 106.255 115.958 105.878C116.02 105.317 116.5 105.209 116.899 105.045C119.032 104.16 120.876 102.836 122.634 101.372C123.775 100.423 123.78 100.245 122.526 99.5065C118.061 96.8722 113.596 94.2432 109.125 91.6197C108.546 91.2799 107.955 90.9537 107.481 90.4737C107.106 90.0935 106.696 89.6891 107.095 89.0824C107.092 88.4083 107.09 87.7342 107.087 87.0601C107.138 86.5883 107.758 86.4912 107.783 86.0005C107.626 85.4989 107.532 85.0298 108.314 85.0621C110.145 85.5879 111.692 86.6826 113.329 87.5967C113.663 87.7827 114.073 88.082 113.828 88.5593C113.558 89.077 113.078 88.9449 112.647 88.7696C111.978 88.5 111.406 88.0497 110.765 87.7288C109.559 87.1302 108.713 87.2192 108.262 88.0012C107.836 88.74 108.23 89.5381 109.452 90.2122C112.318 91.7922 115.1 93.5152 117.929 95.1573C122.114 97.5894 126.279 100.057 130.222 102.877C130.561 103.12 131.187 103.187 131.028 103.861L131.025 103.861Z" fill="#161144"/>
<path id="Vector_24" d="M60.5559 148.194C62.5727 147.793 64.6139 148.122 66.6388 148.027C67.5691 147.984 68.502 148.003 69.4323 147.995C69.9095 147.647 70.465 147.75 70.9935 147.75C86.8453 147.744 102.697 147.744 118.549 147.75C119.078 147.75 119.633 147.644 120.113 147.987C140.832 147.995 161.548 148.003 182.267 148.011C182.056 148.575 181.576 148.297 181.231 148.297C144.278 148.313 107.321 148.321 70.3679 148.316C67.0972 148.316 63.8265 148.235 60.5586 148.192L60.5559 148.194Z" fill="black"/>
<path id="Vector_25" d="M120.113 147.987C103.22 147.987 86.3276 147.992 69.4349 147.992C69.4268 147.831 69.4161 147.672 69.4053 147.51C69.559 147.477 69.7154 147.442 69.869 147.41C86.209 147.426 102.552 147.44 118.891 147.459C119.388 147.459 119.878 147.48 120.296 147.148C120.234 147.426 120.172 147.707 120.113 147.984L120.113 147.987Z" fill="#282E62"/>
<path id="Vector_26" d="M140.26 62.3591C142.571 62.2836 144.766 62.9954 147.012 63.3082C148.972 63.5805 151.091 63.9338 153.054 63.0467C154.149 62.5505 154.292 63.8663 155.039 64.0012C155.449 64.2061 155.53 64.6078 155.646 64.9961C156.406 67.5334 157.954 68.7845 160.558 68.6793C162.869 68.585 165.04 67.8785 167.03 66.6436C168.006 66.0369 168.44 64.926 169.348 64.2708C169.667 63.9715 169.71 63.203 170.395 63.5104C172.42 64.4272 174.544 63.8097 176.615 63.9904C176.461 64.1198 176.308 64.2492 176.151 64.3787C174.509 64.7265 172.846 64.562 171.195 64.535C170.473 64.5243 170.055 64.7292 169.669 65.3332C167.596 68.5823 161.75 70.6153 158.094 69.3885C156.001 68.6874 154.904 67.0939 154.551 65.0393C154.378 64.0308 153.955 63.7962 153.068 63.7855C149.261 63.7342 145.451 63.718 141.7 62.9226C141.22 62.8202 140.746 62.7123 140.266 62.6071C140.147 62.5263 140.15 62.4427 140.257 62.3564L140.26 62.3591Z" fill="#181122"/>
<path id="Vector_27" d="M89.8598 5.85948C88.9134 5.8406 87.1742 3.83721 87.212 2.8126C87.2416 1.98751 89.5551 -0.0104843 90.4638 0.00299746C91.3131 0.0164793 93.1332 2.35691 93.1035 3.39771C93.0739 4.4385 91.1648 5.88914 89.8598 5.86218L89.8598 5.85948Z" fill="#F96915"/>
<path id="Vector_28" d="M53.2487 66.0418C53.0654 67.878 51.5689 69.4635 49.7219 69.7816C47.0741 70.2373 46.8125 70.4477 46.249 73.0577C45.8769 74.7807 45.0842 76.0803 43.3774 76.8083C42.0589 77.3692 40.7727 78.0756 40.4437 79.6961C40.3979 79.9199 40.3008 80.1599 40.0204 80.106C39.6861 80.0413 39.6483 79.777 39.7157 79.4831C39.9287 78.5286 40.3925 77.7224 41.2176 77.1858C42.0373 76.652 42.8893 76.1612 43.7549 75.7001C44.5638 75.2687 45.0329 74.6324 45.2406 73.748C45.4023 73.0523 45.6046 72.3621 45.8391 71.688C46.3461 70.2319 47.2251 69.1561 48.8995 69.113C51.0054 69.059 52.0462 67.8807 52.4425 65.9447C52.5099 65.6158 52.4749 65.125 53.0034 65.241C53.4024 65.33 53.2703 65.7398 53.2568 66.0418L53.2487 66.0418Z" fill="#1A1347"/>
<path id="Vector_29" d="M140.26 62.3583C140.257 62.4419 140.26 62.5255 140.268 62.6091C137.016 62.4284 134.056 62.7628 131.564 65.389C129.812 67.236 127.504 68.5572 125.444 70.113C125.444 69.2421 126.153 68.8619 126.665 68.3496C127.442 67.7645 128.183 67.1282 129.006 66.6105C129.879 66.0631 130.154 65.4322 129.609 64.5181C130.084 63.8305 131.346 64.1972 131.519 63.0998C132.894 64.1136 133.63 62.2639 134.824 62.3664C135.703 62.4419 136.515 62.2046 137.38 61.9026C138.249 61.6006 139.314 62.0671 140.265 62.3556L140.26 62.3583Z" fill="#181230"/>
<path id="Vector_30" d="M67.8711 109.726C68.6908 108.043 69.9904 106.695 71.0312 105.166C72.2149 105.63 73.7734 105.587 73.9945 107.355C72.2554 108.927 70.0309 109.238 67.8738 109.726L67.8711 109.726Z" fill="black"/>
<path id="Vector_31" d="M129.21 106.536C129.308 106.884 129.065 107.31 129.448 107.593C127.695 112.681 125.942 117.766 124.19 122.852C124.012 123.146 123.912 123.529 123.322 123.518C123.465 122.41 123.92 121.417 124.273 120.401C125.783 116.057 127.296 111.713 128.817 107.375C128.919 107.083 129.078 106.814 129.21 106.536Z" fill="#23212C"/>
<path id="Vector_32" d="M189.293 96.6481C189.215 96.3488 189.347 95.9767 188.986 95.7771C188.846 95.583 188.832 95.3943 189.002 95.2109C190.253 91.3848 191.494 87.5533 192.774 83.7379C192.958 83.196 192.861 82.4194 193.683 82.2441C194.015 82.6944 193.71 83.1043 193.581 83.5141C192.181 87.9011 190.93 92.3366 189.291 96.6481L189.293 96.6481Z" fill="#272132"/>
<path id="Vector_33" d="M75.2807 99.3148C73.5523 97.2035 74.0646 94.7391 76.3889 93.6201C77.0953 93.2803 77.3946 92.8327 77.1708 92.0292C76.8095 90.7431 77.3542 89.6726 78.1065 88.683C78.2898 88.4431 78.4947 88.1087 78.8614 88.3595C79.2281 88.6129 79.0313 88.9689 78.8183 89.1657C77.7991 90.1148 77.7802 91.2608 78.0444 92.5038C78.1739 93.1159 78.0067 93.5877 77.3811 93.9436C74.9463 95.3242 74.9194 95.4293 75.3804 98.1769C75.4371 98.522 75.5638 98.8726 75.2834 99.3175L75.2807 99.3148Z" fill="#251F53"/>
<path id="Vector_34" d="M37.0194 90.8133C36.0109 89.8184 36.4423 88.9744 36.7443 88.1844C37.1218 87.2002 37.9307 86.7742 38.9526 86.7256C39.171 86.7149 39.4056 86.7445 39.6132 86.8119C40.956 87.2487 41.5465 86.9548 41.4306 85.3721C41.3416 84.1695 42.9298 83.2824 44.073 83.7111C44.2914 83.792 44.5233 83.9106 44.5233 84.1452C44.5233 84.547 44.1728 84.4418 43.9301 84.4688C42.1047 84.671 42.0939 84.671 42.2314 86.4776C42.2961 87.3242 41.889 87.7395 41.0828 87.761C40.6406 87.7745 40.193 87.6801 39.7481 87.637C37.8444 87.4537 37.3214 87.8851 37.1569 89.7644C37.1353 90.026 37.0868 90.2875 37.014 90.8106L37.0194 90.8133Z" fill="#221A57"/>
<path id="Vector_35" d="M116.028 105.753C116.227 106.072 116.573 105.95 116.853 106.023C112.364 107.676 108.168 107.053 104.242 104.381C104.754 104.357 104.463 104.028 104.461 103.807C104.884 103.564 105.24 103.804 105.585 103.993C108.422 105.543 111.436 106.074 114.634 105.592C115.1 105.521 115.607 105.335 116.028 105.753Z" fill="#2E2C6B"/>
<path id="Vector_36" d="M38.2517 99.2909C37.3403 99.183 36.7202 98.6411 36.6663 97.5922C36.615 96.546 37.7475 95.3111 38.7047 95.3057C39.5325 95.3003 40.3198 96.2036 40.2848 97.1203C40.2416 98.2879 39.333 99.3098 38.2517 99.2909Z" fill="#2A2253"/>
<path id="Vector_37" d="M48.727 78.9952C48.2362 78.9764 47.8587 78.8658 47.8722 78.2349C47.8911 77.3963 49.1314 75.1071 49.6329 75.0693C50.2369 75.0235 51.4826 76.5955 51.453 77.3612C51.4314 77.9275 49.6491 78.9952 48.727 78.9952Z" fill="#261E55"/>
<path id="Vector_38" d="M68.9901 82.5921C68.0707 82.4788 67.5071 81.8802 67.4613 80.8475C67.4181 79.893 68.5641 78.6042 69.435 78.6527C70.5163 78.712 70.9881 79.4212 71.0259 80.435C71.069 81.589 70.1603 82.5921 68.9901 82.5921Z" fill="#212050"/>
<path id="Vector_39" d="M65.6573 62.4017C65.6412 62.5284 65.6277 62.6524 65.6115 62.7791C62.872 61.404 60.6233 59.3278 58.1561 57.5644C57.8757 57.3649 57.9458 57.1141 58.1992 56.9092C60.2862 57.9446 61.9013 59.646 63.8184 60.9268C64.4656 61.3582 65.2475 61.6602 65.6573 62.4044L65.6573 62.4017Z" fill="#281A5E"/>
<path id="Vector_40" d="M183.049 103.797C182.89 103.729 182.73 103.664 182.571 103.597C182.345 103.306 182.423 102.988 182.539 102.702C183.264 100.917 184.046 99.1588 184.78 97.3765C184.896 97.0907 185.068 96.8049 185.462 96.8318C185.642 96.9235 185.82 97.0152 186.001 97.1069C185.106 99.3745 184.273 101.672 183.049 103.797Z" fill="#1F1A3C"/>
<path id="Vector_41" d="M70.6025 87.5483C70.5055 88.2197 70.19 88.6134 69.6912 88.9046C69.2031 89.1904 68.7528 89.1688 68.3241 88.8183C67.9601 88.5217 67.588 88.0984 67.9116 87.6804C68.3295 87.1385 68.5506 87.7613 68.8068 88.0013C69.4835 88.6403 69.5644 87.9743 69.7721 87.5672C69.8988 87.3191 70.0713 87.0738 70.3868 87.1951C70.5055 87.2409 70.5567 87.4647 70.6052 87.5456L70.6025 87.5483Z" fill="#3B385D"/>
<path id="Vector_42" d="M66.1508 74.8237C66.1832 74.7563 66.2128 74.5352 66.3315 74.4705C66.5364 74.3573 66.8034 74.4409 66.9139 74.6458C67.3345 75.4331 67.7066 75.4088 68.0545 74.608C68.192 74.2926 68.3672 73.996 68.7339 74.2359C69.0764 74.4624 68.8742 74.7941 68.7259 75.0664C68.4077 75.6488 67.9682 76.1072 67.2482 75.9778C66.6982 75.878 66.2668 75.5544 66.1508 74.8237Z" fill="#2F2B5A"/>
<path id="Vector_43" d="M182.248 147.749C180.689 147.755 179.133 147.774 177.575 147.76C177.152 147.758 176.669 147.917 176.337 147.477C178.006 147.477 179.678 147.461 181.347 147.482C181.652 147.485 182.07 147.261 182.248 147.749Z" fill="black"/>
<path id="Vector_44" d="M114.14 31.6768C114.863 31.6875 115.586 31.6983 116.308 31.7091C115.572 32.5099 114.85 32.5854 114.14 31.6768Z" fill="#F96915"/>
<path id="Vector_45" d="M64.6031 75.32C64.56 74.5462 64.471 73.7588 65.102 73.1387C64.9914 73.8775 65.5765 74.7781 64.6031 75.32Z" fill="#F96915"/>
<path id="Vector_46" d="M185.227 65.0709C184.556 65.0412 183.803 65.3135 183.321 64.572C184.027 64.4723 184.701 64.4885 185.227 65.0709Z" fill="#F96915"/>
<path id="Vector_47" d="M33.6085 147.215C33.3146 148.243 32.4868 147.978 31.7696 147.973C31.7723 146.371 32.0824 144.764 31.7426 143.165C31.4514 136.225 31.1413 129.282 30.896 122.339C30.8717 121.692 30.4079 120.513 31.4892 120.454C32.7133 120.384 32.3008 121.624 32.3385 122.328C32.619 127.877 32.805 133.432 33.1151 138.981C33.2526 141.445 33.3308 143.904 33.3604 146.369C33.3631 146.668 33.2715 147.01 33.6112 147.215L33.6085 147.215Z" fill="black"/>
<path id="Vector_48" d="M59.7335 121.889C59.4585 122.121 59.4801 122.442 59.4774 122.754C59.4585 126.198 59.1916 129.633 59.1484 133.079C59.0891 137.768 58.4662 142.443 58.6523 147.143C58.6846 147.957 58.2586 148.017 57.6573 147.984C56.9428 147.949 57.2367 147.526 57.2933 147.14C57.7922 143.759 57.5576 140.354 57.5791 136.959C57.7733 131.906 57.9647 126.85 58.167 121.797C58.1912 121.201 58.0133 120.376 58.9462 120.379C59.9735 120.382 59.7281 121.244 59.7389 121.886L59.7335 121.889Z" fill="black"/>
<path id="Vector_49" d="M45.7852 120.484C46.4701 120.962 46.2732 121.69 46.2732 122.331C46.2813 130.113 46.2678 137.892 46.2678 145.674C46.2678 146.253 46.3245 146.83 46.3541 147.407C46.311 147.445 46.2678 147.483 46.2247 147.521C45.5641 147.677 45.4886 147.173 45.3861 146.747C45.2702 146.267 45.3025 145.768 45.3025 145.277C45.3025 137.728 45.2998 130.178 45.3025 122.628C45.3025 122.048 45.2675 121.463 45.4562 120.9C45.5236 120.727 45.6315 120.59 45.7825 120.484L45.7852 120.484Z" fill="black"/>
<path id="Vector_50" d="M60.7958 110.44C60.3671 110.014 60.5909 109.604 60.8767 109.256C61.6398 108.331 62.4352 107.431 63.2253 106.527C63.4005 106.325 63.6081 106.134 63.9128 106.26C64.5546 106.53 64.9024 107.137 65.3985 107.576C66.2209 108.307 65.3688 108.711 65.0237 109.21C64.8727 109.429 64.7433 109.661 64.6058 109.887C63.4005 110.521 62.1386 110.75 60.7958 110.44Z" fill="black"/>
<path id="Vector_51" d="M44.6447 147.472C44.4641 147.467 44.2807 147.462 44.1001 147.456C44.4964 146.898 44.3913 146.256 44.3913 145.636C44.394 137.66 44.394 129.685 44.3994 121.706C44.3994 120.792 44.3994 119.848 45.7826 120.482C45.7502 120.525 45.7152 120.571 45.6774 120.614C44.9548 121.391 45.1004 122.369 45.0977 123.291C45.0815 130.628 45.095 137.965 45.0788 145.305C45.0788 146.046 45.2433 146.844 44.642 147.472L44.6447 147.472Z" fill="black"/>
<path id="Vector_52" d="M44.1162 147.451C43.7279 147.904 43.124 147.933 42.6494 147.955C39.9018 148.087 37.1515 148.047 34.4093 147.742C34.1667 147.715 33.9887 147.621 33.9078 147.378C37.3106 147.402 40.7107 147.426 44.1135 147.451L44.1162 147.451Z" fill="black"/>
<path id="Vector_53" d="M31.7426 143.166C32.2145 144.767 32.112 146.369 31.7696 147.973C28.623 147.973 25.4763 147.973 22.3297 147.973C22.3297 147.895 22.3297 147.82 22.3297 147.741C24.3708 147.741 26.4119 147.752 28.4531 147.733C28.9223 147.728 29.4454 147.909 29.8444 147.48C31.7534 147.364 31.748 147.364 31.7211 145.396C31.7103 144.651 31.7319 143.907 31.7399 143.163L31.7426 143.166Z" fill="#262391"/>
<path id="Vector_54" d="M189.005 95.2107C188.999 95.3994 188.994 95.5882 188.989 95.7769C188.797 95.9926 188.608 96.114 188.298 95.9468C183.189 93.1965 178.076 90.457 172.961 87.7121C174.151 87.5422 174.906 88.5102 175.898 88.8581C176.58 89.098 176.904 89.276 177.268 88.3835C178.589 85.1371 183.483 84.1664 185.338 85.5847C186.691 86.6174 187.972 87.8577 187.929 89.8234C187.918 90.2763 188.066 90.6538 188.261 91.0745C188.603 91.8079 188.66 92.6168 187.975 93.2936C187.638 93.6252 187.179 93.9704 187.535 94.5474C187.87 95.0893 188.352 95.3509 189.005 95.2107Z" fill="#F96915"/>
<path id="Vector_55" d="M155.082 95.2919C150.366 92.5793 145.65 89.8695 140.934 87.157C141.732 87.2298 142.35 87.1003 142.797 86.2672C143.186 85.5391 145.572 85.1563 146.227 85.6713C146.777 86.1054 147.311 86.7013 146.748 87.4967C146.494 87.8553 146.37 88.2166 146.535 88.6211C146.923 89.5756 146.065 88.9878 145.785 89.2143C146.162 89.8129 146.793 90.0421 147.349 90.3602C149.617 91.6599 151.9 92.9352 154.152 94.2645C154.535 94.491 155.098 94.6582 155.085 95.2892L155.082 95.2919Z" fill="#F96915"/>
<path id="Vector_56" d="M145.308 68.3069C146.57 68.3635 147.055 68.9028 146.985 70.1728C146.917 71.3861 146.257 72.0953 145.213 72.071C144.164 72.0468 143.205 71.1246 143.218 70.1566C143.237 68.9486 144.022 68.2503 145.305 68.3069L145.308 68.3069Z" fill="#F96915"/>
<path id="Vector_57" d="M155.842 88.2464C154.726 88.6401 154.394 87.6586 154.146 86.8686C153.92 86.1406 155.19 85.0027 156.045 85.0108C156.924 85.0162 158.169 85.9518 158.121 86.5666C158.04 87.5831 157.193 88.2437 155.842 88.2491L155.842 88.2464Z" fill="#F96915"/>
<path id="Vector_58" d="M172.26 81.7405C171.697 81.7109 170.661 80.4463 170.691 79.8207C170.721 79.1547 171.918 77.8605 172.393 78.0843C173.139 78.4321 173.876 78.9148 173.902 79.8989C173.921 80.5353 172.794 81.7702 172.263 81.7405L172.26 81.7405Z" fill="#F96915"/>
<path id="Vector_59" d="M137.825 81.1711C137.796 82.2631 137.181 83.1853 136.925 84.218C136.736 84.9784 136.313 84.6009 135.981 84.2611C134.309 82.5489 132.64 80.8395 130.971 79.1273C131.103 79.1138 131.287 79.0383 131.362 79.1003C132.554 80.0494 133.8 80.888 135.296 81.2924C135.601 81.3733 135.536 81.5863 135.372 81.7994C134.935 82.3521 135.204 82.797 135.622 83.1988C135.873 83.4387 136.081 83.8648 136.456 83.792C136.933 83.7003 136.62 83.161 136.785 82.8941C137.138 82.3251 137.116 81.5216 137.828 81.1738L137.825 81.1711Z" fill="#F96915"/>
<path id="Vector_60" d="M181.994 74.2338C181.927 73.3521 182.291 72.6834 183.102 72.6807C183.903 72.678 184.602 73.3602 184.594 74.1097C184.585 74.9133 183.863 75.6709 183.062 75.6979C182.339 75.7222 181.832 75.0589 181.994 74.2365L181.994 74.2338Z" fill="#F96915"/>
<path id="Vector_61" d="M151.814 75.8812C151.989 76.8762 151.385 76.9625 150.625 76.9517C149.859 76.9409 149.228 76.6011 149.217 75.8758C149.204 75.0426 149.894 74.773 150.698 74.7434C151.544 74.7137 151.976 74.986 151.814 75.8839L151.814 75.8812Z" fill="#F96915"/>
<path id="Vector_62" d="M124.155 72.3671C123.818 72.4372 123.831 72.7095 123.807 72.963C122.747 72.9306 121.809 73.2002 121.097 74.0361C120.687 74.392 121.105 75.085 120.555 75.3843C119.711 74.392 120.269 73.513 120.873 72.7445C121.704 71.6903 122.844 71.6633 124.033 72.0678C124.074 72.1675 124.114 72.27 124.152 72.3698L124.155 72.3671Z" fill="#1D1668"/>
<path id="Vector_63" d="M132.775 73.179C131.974 73.1439 131.392 73.2733 131.362 72.4294C131.335 71.6987 131.68 71.483 132.33 71.5207C132.894 71.5531 133.535 71.3913 133.535 72.3242C133.535 73.0927 133.112 73.2167 132.775 73.179Z" fill="#F96915"/>
<path id="Vector_64" d="M160.189 96.0717C160.019 96.4735 159.841 96.8725 159.682 97.277C159.48 97.7866 159.17 97.8109 158.762 97.5143C157.883 96.8671 156.789 96.5598 155.991 95.7832C156.295 95.8263 156.673 95.7697 156.891 95.9315C157.975 96.7296 159.037 97.1907 160.186 96.0717L160.189 96.0717Z" fill="#F96915"/>
<path id="Vector_65" d="M169.348 64.2702C168.297 67.9022 161.108 69.8463 158.169 68.6491C156.093 67.8025 155.37 66.0283 155.039 64.0006C154.942 61.6737 154.893 59.344 154.729 57.0224C154.667 56.1434 154.966 55.7929 155.783 55.7201C158.857 55.4397 161.529 54.1158 164.077 52.4818C164.425 52.258 165.058 52.0342 164.668 51.5165C164.36 51.112 163.961 51.627 163.659 51.832C160.183 54.2209 156.409 55.561 152.146 54.8923C147.295 54.132 144.226 51.2307 143.008 46.5525C141.611 41.1841 141.894 35.8048 143.498 30.493C143.765 29.6086 143.933 29.3686 145.033 29.765C149.101 31.2318 153.259 31.9517 157.528 29.8863C157.404 31.5904 157.997 32.9575 159.528 33.7583C160.922 34.489 162.419 35.0552 163.977 35.1847C165.142 35.2817 165.428 35.5891 164.676 36.7378C165.555 36.6596 165.795 36.0987 166.118 35.6808C167.081 34.4297 168.113 33.2487 169.502 32.4614C170.856 31.6929 171.522 31.914 172.174 33.3053C173.129 35.3411 173.193 37.4847 172.716 39.6229C172.309 41.4483 170.597 42.3219 168.008 42.3273C167.453 42.3273 166.463 41.7665 166.404 42.5134C166.347 43.2333 167.426 42.9367 167.987 42.9637C169.087 43.0149 169.259 43.298 168.793 44.3469C168.086 45.9323 167.706 47.5771 167.925 49.4187C168.51 54.3558 168.893 59.3197 169.356 64.2702L169.348 64.2702Z" fill="#FEFEFE"/>
<path id="Vector_66" d="M120.553 75.3822C120.809 74.9858 120.237 74.3576 120.914 74.0771C121.847 75.757 123.025 77.2669 124.122 78.8362C124.398 79.2299 124.759 79.6963 124.346 80.1655C123.958 80.605 123.408 80.4513 122.982 80.206C121.618 79.4105 119.981 79.0438 118.964 77.693C119.196 77.3937 119.552 77.4988 119.851 77.4179C120.164 77.4503 120.48 77.4853 120.793 77.5177C121.167 77.4449 121.386 77.7685 121.698 77.8925C121.458 77.5797 121.181 77.3155 121.119 76.9191C120.93 76.4068 120.741 75.8972 120.55 75.3849L120.553 75.3822Z" fill="#19112D"/>
<path id="Vector_67" d="M121.121 76.916C121.658 77.3528 122.195 77.7896 122.731 78.2237L122.413 78.5743C121.733 78.4637 121.191 78.1159 120.795 77.5146C120.903 77.3151 121.014 77.1155 121.121 76.916Z" fill="#C8BFE1"/>
<path id="Vector_68" d="M171.203 121.075C173.398 119.794 175.386 118.252 177.119 116.389C177.092 117.575 177.135 118.926 176.329 119.751C175.493 120.603 174.207 120.999 172.937 121.083C172.363 121.121 171.783 121.083 171.206 121.078L171.203 121.075Z" fill="#F96915"/>
<path id="Vector_69" d="M146.575 118.925C147.405 118.888 147.996 119.292 148.055 120.273C148.101 121.039 146.942 122.223 146.184 122.142C145.165 122.034 144.874 121.26 144.852 120.381C144.825 119.314 145.461 118.901 146.575 118.925Z" fill="#F96915"/>
<path id="Vector_70" d="M134.045 118.483C134.045 117.361 134.479 116.701 135.474 116.819C136.294 116.919 137.291 117.318 137.211 118.267C137.157 118.904 137.019 120.179 135.846 119.95C135.067 119.799 133.856 119.723 134.045 118.483Z" fill="#F96915"/>
<path id="Vector_71" d="M168.647 122.145C169.454 121.67 170.308 121.304 171.214 121.066C170.713 122.269 169.661 122.161 168.647 122.145Z" fill="#F96915"/>
<path id="Vector_72" d="M43.5931 17.138C43.5769 15.5741 44.3858 14.5253 45.3404 14.4444C46.4593 14.35 47.7806 15.2398 47.8318 16.3965C47.9504 18.9877 47.9235 21.5897 47.8803 24.1836C47.8695 24.8092 47.3626 25.1974 46.6858 25.2028C45.6477 25.2082 44.9251 24.5611 44.7364 23.6902C44.2349 21.3929 43.9167 19.0524 43.5931 17.138Z" fill="#FDFDF3"/>
<path id="Vector_73" d="M45.1867 28.0937C45.0896 27.0475 45.6019 26.4273 46.6589 26.3545C47.6134 26.2898 48.452 27.2982 48.4978 28.3822C48.541 29.4095 48.0853 29.973 47.058 30.0135C45.939 30.0566 45.1921 29.2828 45.1867 28.0937Z" fill="#FCFAEE"/>
<path id="Vector_74" d="M51.0054 100.555C50.9137 100.501 50.7169 100.434 50.7196 100.375C50.7249 100.216 50.7681 99.9972 50.8813 99.9109C52.7418 98.4791 54.365 96.8236 55.7213 94.9038C55.8615 94.7042 56.0691 94.6018 56.2929 94.7635C56.5005 94.9145 56.5383 95.1491 56.3819 95.3514C54.9205 97.2253 53.4024 99.0427 51.4206 100.404C51.3127 100.477 51.1698 100.496 51.0081 100.553L51.0054 100.555Z" fill="#4A2D1D"/>
<path id="Vector_75" d="M59.995 100.175C60.4561 100.852 60.1838 101.205 59.9465 101.507C58.6765 103.125 57.2825 104.624 55.6782 105.918C55.4247 106.123 55.0607 106.519 54.7614 106.147C54.4567 105.767 54.9475 105.532 55.1901 105.322C56.9455 103.818 58.5255 102.14 59.9923 100.175L59.995 100.175Z" fill="#382110"/>
<path id="Vector_76" d="M58.3368 98.0796C58.1669 98.3276 57.9404 98.6566 57.7166 98.9882C56.6192 100.601 55.2144 101.911 53.6667 103.079C53.4267 103.259 53.0897 103.521 52.8308 103.222C52.5423 102.887 52.9252 102.666 53.1463 102.477C54.7884 101.081 56.425 99.6839 57.5818 97.8261C57.6896 97.6535 57.8406 97.427 58.1157 97.5457C58.2909 97.6212 58.3799 97.7776 58.3368 98.0823L58.3368 98.0796Z" fill="#492E12"/>
<path id="Vector_77" d="M118.964 77.6907C120.342 78.4241 121.72 79.1575 123.101 79.8936C123.446 80.0769 123.839 80.476 124.176 80.1201C124.516 79.7615 124.071 79.3948 123.864 79.0955C123.276 78.2515 122.642 77.4426 122.046 76.604C121.502 75.841 120.957 75.0698 120.914 74.0775C121.744 72.6458 122.324 72.422 123.804 72.9639C127.463 76.7146 131.122 80.4679 134.781 84.2185C136.121 85.591 137.885 86.319 139.5 87.26C145.836 90.9486 152.213 94.5698 158.536 98.2854C159.488 98.8463 159.83 98.5901 160.251 97.7623C162.195 93.9335 164.182 90.1262 166.124 86.2947C166.474 85.6018 166.771 85.3834 167.547 85.7986C173.226 88.8266 178.915 91.8384 184.642 94.7748C185.672 95.3032 186.009 95.8209 185.456 96.8348C184.37 99.0377 183.44 101.305 182.566 103.6C181.471 106.126 180.366 108.645 179.282 111.177C175.725 119.495 167.671 123.647 159.075 121.617C157.023 121.132 155.295 120.053 153.577 118.899C146.3 114.005 139.009 109.13 131.724 104.252C131.502 104.104 131.254 103.991 131.02 103.861C125.886 100.108 120.383 96.9453 114.893 93.7609C112.881 92.5934 110.859 91.4448 108.856 90.2611C107.712 89.587 107.362 88.6864 107.85 87.8424C108.462 86.7855 109.217 86.5994 110.46 87.2357C111.255 87.6429 112.019 88.1121 112.817 88.5111C113.094 88.6486 113.502 89.0046 113.723 88.4815C113.89 88.0824 113.445 88.0096 113.194 87.8667C111.566 86.9365 109.94 86.0035 108.209 85.2701C106.696 84.7335 106.335 84.108 106.607 82.5063C107.57 81.0746 108.136 80.9155 109.57 81.7487C111.269 82.7355 113.086 83.4932 114.812 84.4288C112.682 83.3827 110.651 82.1477 108.529 81.0827C108.017 80.8265 107.44 80.6459 107.152 80.0796C106.825 79.6212 106.097 79.5457 106.006 78.8501C105.914 78.1436 106.019 77.5073 106.556 77.0004C107.171 76.418 107.847 76.6903 108.435 76.9815C110.838 78.1733 113.202 79.446 115.613 80.6216C116.23 80.9236 117.171 81.8673 117.508 81.1878C117.883 80.4302 116.546 80.2738 115.955 79.9232C114.653 79.1467 113.248 78.5373 111.897 77.839C110.643 77.1918 110.215 76.2481 110.751 75.272C111.423 74.0533 112.418 74.4604 113.321 74.8891C115.216 75.7897 117.082 76.7577 118.962 77.696L118.964 77.6907Z" fill="#FEFEFE"/>
<path id="Vector_78" d="M61.8447 75.0155C61.087 74.6623 59.3587 74.8996 59.5312 74.1527C59.7442 73.2306 61.0789 74.4412 61.9687 74.2336C62.2249 74.1743 62.7938 74.0961 62.6967 74.692C62.6293 75.0991 62.2222 75.0021 61.8447 75.0155Z" fill="#4B2E0D"/>
<path id="Vector_79" d="M62.775 72.6534C62.047 72.462 61.3163 72.2759 60.5883 72.0764C60.3618 72.0144 60.1703 71.8607 60.227 71.6018C60.3159 71.1947 60.6125 71.3673 60.8606 71.4158C61.5131 71.5452 62.1683 71.6719 62.8209 71.796C63.1094 71.8499 63.5489 71.7636 63.5273 72.195C63.5084 72.5698 63.1229 72.6049 62.775 72.6534Z" fill="#442E12"/>
<path id="Vector_80" d="M116.028 105.754C112.949 106.301 109.899 106.363 106.963 105.077C106.108 104.702 105.294 104.233 104.461 103.81C92.0789 92.3692 79.9319 80.6886 68.4319 68.3501C67.9439 67.827 67.4343 67.3201 66.9354 66.8078C66.0672 65.9153 65.9297 64.9743 66.7386 63.9658C77.9123 72.2409 89.0887 80.508 100.244 88.8046C100.856 89.2603 101.376 89.3682 102.085 89.1336C103.188 88.7723 104.35 88.5808 105.434 88.1791C106.432 87.8097 107.009 87.9202 107.095 89.0851C107.098 89.9182 107.642 90.3389 108.289 90.7191C113.299 93.6635 118.285 96.6483 123.322 99.5469C124.308 100.116 124.298 100.402 123.481 101.1C121.224 103.031 118.87 104.781 116.025 105.759L116.028 105.754Z" fill="#FEFEFE"/>
<path id="Vector_81" d="M108.192 86.0977C108.179 86.8284 107.354 86.6235 107.084 87.0603C105.712 87.4243 104.334 87.7667 102.967 88.1577C102.255 88.3626 102.037 88.1361 102.255 87.462C103.064 84.9625 104.145 82.5763 105.348 80.2439C105.526 79.8961 105.787 79.8395 106.1 80.1145C106.399 80.3787 106.696 80.6565 107.117 80.7239C107.543 81.2335 107.168 81.5732 106.86 81.9264C106.105 83.2854 106.162 83.7869 107.108 84.9329C107.448 85.3454 107.872 85.6744 108.19 86.1004L108.192 86.0977Z" fill="#70A1E5"/>
<path id="Vector_82" d="M106.601 81.7722C106.882 81.4756 107.286 81.241 107.119 80.7233C107.133 80.5076 107.143 80.2919 107.157 80.0762C109.732 81.4001 112.31 82.7267 114.885 84.0506C115.243 84.2339 115.785 84.4604 115.588 84.8703C115.343 85.3799 114.928 84.935 114.591 84.757C112.9 83.8592 111.169 83.0287 109.522 82.0553C108.405 81.3974 107.559 81.4324 106.839 82.5487C106.192 82.4651 106.483 82.093 106.599 81.7749L106.601 81.7722Z" fill="#151038"/>
<path id="Vector_83" d="M44.6447 147.472C44.6554 139.105 44.6608 130.738 44.6959 122.372C44.6986 121.662 44.3454 120.63 45.6801 120.616C45.7043 125.853 45.734 131.089 45.7502 136.328C45.761 139.596 45.7394 142.864 45.7609 146.132C45.7636 146.62 45.5075 147.248 46.2247 147.52C45.6747 148.248 45.1462 148.313 44.6447 147.475L44.6447 147.472Z" fill="black"/>
<path id="Vector_84" d="M106.602 81.7725C106.655 82.0394 106.542 82.3576 106.841 82.5463C106.426 83.8918 107.232 84.6252 108.214 85.2669C107.443 85.5258 108.502 85.8278 108.195 86.0974C105.828 84.6468 105.437 83.5898 106.604 81.7725L106.602 81.7725Z" fill="#262077"/>
<path id="Vector_85" d="M39.5054 97.1203C39.252 97.6434 39.3841 98.5413 38.4134 98.5036C37.8795 98.482 37.4535 98.1045 37.4778 97.5464C37.5102 96.7941 38.0036 96.2764 38.7343 96.1928C39.2277 96.1362 39.5162 96.5406 39.5054 97.1203Z" fill="#F6F6F6"/>
<path id="Vector_86" d="M48.7997 77.7903C49.1934 77.2591 49.1691 76.3504 49.8783 76.1159C50.3367 75.9649 50.3771 76.6605 50.4418 77.003C50.6144 77.9089 49.7084 77.793 49.2662 78.1058C48.9912 78.2999 48.8941 78.0492 48.7997 77.7903Z" fill="#DDE0E3"/>
<path id="Vector_87" d="M70.2709 80.546C70.2062 81.1527 69.9042 81.7971 69.1492 81.8484C68.5803 81.8888 68.1381 81.3711 68.1947 80.7806C68.2648 80.0391 68.8175 79.5807 69.5429 79.5214C70.0902 79.4783 70.2709 79.9286 70.2709 80.546Z" fill="#ECEEEC"/>
<path id="Vector_88" d="M148.886 45.0053C149.269 43.5789 149.649 42.1525 150.042 40.7288C150.113 40.4754 150.242 40.1464 150.563 40.2246C151.008 40.3352 150.827 40.7423 150.762 41.0066C150.504 42.0474 150.207 43.0801 149.916 44.1128C149.654 45.0403 149.541 45.8951 150.719 46.3103C150.994 46.4074 151.35 46.5961 151.151 46.9979C150.965 47.3673 150.638 47.281 150.342 47.1138C149.527 46.6554 148.826 46.1162 148.888 45.0053L148.886 45.0053Z" fill="#1E193D"/>
<path id="Vector_89" d="M153.871 50.4785C153.494 50.4758 152.957 50.6457 152.96 50.0417C152.96 49.5105 153.472 49.6939 153.796 49.675C155.335 49.5779 156.371 48.8257 156.878 47.3561C156.986 47.0461 157.029 46.5149 157.509 46.7036C157.994 46.8951 157.776 47.3912 157.652 47.7525C157.139 49.2436 155.454 50.4462 153.871 50.4785Z" fill="#221F4B"/>
<path id="Vector_90" d="M168.221 37.1124C168.151 36.3251 168.529 35.7534 169.095 35.3085C169.785 34.7639 170.626 35.0362 170.885 35.8802C170.988 36.2118 170.999 36.5812 170.993 36.9344C170.985 37.4306 171.252 38.2503 170.573 38.2584C169.966 38.2664 170.322 37.4575 170.244 37.0153C170.171 36.5974 170.354 35.9934 169.836 35.8694C169.408 35.7669 169.281 36.3628 169.036 36.6567C168.839 36.8913 168.688 37.1717 168.224 37.1124L168.221 37.1124Z" fill="#2B2359"/>
<path id="Vector_91" d="M147.707 39.0051C147.556 39.6064 147.502 40.3937 146.688 40.3506C145.871 40.3047 145.844 39.5282 145.866 38.8999C145.885 38.3202 145.933 37.6219 146.734 37.63C147.586 37.6407 147.608 38.3741 147.707 39.0051Z" fill="#1A1136"/>
<path id="Vector_92" d="M154.483 39.8661C154.521 39.3618 154.497 38.6365 155.306 38.6743C156.163 38.7147 156.293 39.5101 156.338 40.1734C156.379 40.7586 156.228 41.4866 155.484 41.4461C154.669 41.4003 154.481 40.6777 154.483 39.8688L154.483 39.8661Z" fill="#191531"/>
<path id="Vector_93" d="M146.497 35.6758C146.888 35.7216 147.163 35.7162 147.419 35.789C147.915 35.9319 148.684 36.0209 148.46 36.7139C148.241 37.3907 147.724 36.7301 147.349 36.6546C146.861 36.5548 146.392 36.4442 145.909 36.6896C145.647 36.8217 145.297 37.0725 145.127 36.6303C144.998 36.2906 145.278 36.0209 145.577 35.8996C145.904 35.7702 146.262 35.7297 146.499 35.6758L146.497 35.6758Z" fill="#333056"/>
<path id="Vector_94" d="M155.238 36.7302C155.643 36.7896 155.92 36.7922 156.171 36.8731C156.622 37.016 157.298 37.1239 157.042 37.7737C156.813 38.3615 156.387 37.7899 156.042 37.7063C155.519 37.5769 154.998 37.5095 154.481 37.7899C154.227 37.9274 153.85 38.1728 153.677 37.7656C153.51 37.3666 153.847 37.0969 154.203 36.9756C154.578 36.8489 154.974 36.7896 155.236 36.7275L155.238 36.7302Z" fill="#333765"/>
</g>
<defs>
<clipPath id="clip0_1859_2514">
<rect width="148.367" height="194" fill="white" transform="translate(194.5) rotate(90)"/>
</clipPath>
</defs>
</svg>
